<?xml version="1.0" encoding="utf-8"?>
<!-- Generator: Adobe Illustrator 22.0.1, SVG Export Plug-In . SVG Version: 6.00 Build 0)  -->
<svg version="1.1" id="Layer_1" xmlns="http://www.w3.org/2000/svg" xmlns:xlink="http://www.w3.org/1999/xlink" x="0px" y="0px"
	 viewBox="0 0 720.2 128.8" style="enable-background:new 0 0 720.2 128.8;" xml:space="preserve">
<style type="text/css">
	.st0{fill:#0053A3;}
</style>
<g>
	<path class="st0" d="M11.4,69.1h0.2c1.8-3.6,6.3-7.2,13.3-7.2c12.1,0,16.5,8.3,16.5,17.1v27.5H30v-22c0-4.8-0.4-12.8-8.3-12.8
		c-7.4,0-10.4,5.3-10.4,11.1v23.8H0.1V38h11.3C11.4,38,11.4,69.1,11.4,69.1z"/>
	<path class="st0" d="M95.3,106.6H84.6v-7h-0.2c-2.1,4.4-6.3,8.1-13.8,8.1c-12.1,0-16.5-8.3-16.5-17.2V63.1h11.3v22
		c0,4.8,0.4,12.8,8.3,12.8c7.4,0,10.3-5.3,10.3-11.1V63.1h11.3L95.3,106.6z"/>
	<path class="st0" d="M107.6,63.1h10.7v6.8h0.2c2-4.1,6.3-7.9,13.8-7.9c7,0,11.8,2.6,14.1,8.1c3.3-5.5,8.1-8.1,14.9-8.1
		c12,0,16.3,8.3,16.3,18.7v25.9h-11.3V81.9c0-5.4-1.7-10.1-8.4-10.1c-7.1,0-9.7,5.6-9.7,11.2v23.6h-11.3V80.7c0-5.4-2.3-8.9-7.7-8.9
		c-7.4,0-10.4,5.3-10.4,11.1v23.8h-11.3L107.6,63.1L107.6,63.1z"/>
	<path class="st0" d="M217.6,87.1h-2.4c-6.2,0-16.9,0.5-16.9,6.7c0,4,4.2,5.7,7.9,5.7c7.7,0,11.4-3.9,11.4-10V87.1L217.6,87.1z
		 M218.2,100.6h-0.3c-3.2,4.9-8.5,7.1-14.5,7.1c-8.4,0-16.5-4.5-16.5-13.1c0-14.1,17.1-15.1,28.4-15.1h2.8v-1.2
		c0-5.4-4.3-8.2-10.4-8.2c-4.7,0-9,1.8-12,4.5l-5.9-5.7c5-4.9,12-7,19.2-7c19.3,0,19.3,13.4,19.3,19.6v25h-10.1V100.6z"/>
	<path class="st0" d="M240.5,63.1h10.7v7h0.2c2.1-4.4,6.3-8.1,13.8-8.1c12.1,0,16.5,8.3,16.5,17.1v27.5h-11.3v-22
		c0-4.8-0.4-12.8-8.3-12.8c-7.4,0-10.4,5.3-10.4,11.1v23.8h-11.3L240.5,63.1L240.5,63.1z"/>
	<path class="st0" d="M319.2,70.1h-13v21.2c0,5.5,0.1,9.8,6.6,9.8c2.2,0,4.5-0.5,6.5-1.5l0.3,6.4c-2.5,1.1-5.8,1.5-8.6,1.5
		c-10.4,0-12.1-5.4-12.1-14.2V70.1h-9.6v-6h9.6v-12h7.3v12h13L319.2,70.1L319.2,70.1z"/>
	<path class="st0" d="M361.3,81.6c-0.3-7.2-5.2-12-13.3-12c-8.1,0-13.5,4.8-14.4,12H361.3z M367.6,98.9c-5.2,6.4-11.4,8.8-19.6,8.8
		c-13.8,0-22.3-10-22.3-22.3c0-13.2,9.6-22.3,22.6-22.3c12.4,0,20.9,8.2,20.9,22.2v2.3h-35.6c0.6,7.4,6.4,13.6,14.4,13.6
		c6.3,0,10.6-2.2,14-6.4L367.6,98.9z"/>
	<rect x="381.2" y="28" class="st0" width="7.3" height="78.6"/>
	<rect x="403.8" y="0.1" class="st0" width="7.3" height="106.5"/>
	<path class="st0" d="M426.4,57.6h7.3v49h-7.3V57.6z M430.1,32.4c3,0,5.4,2.7,5.4,6c0,3.5-2.3,6-5.4,6s-5.4-2.5-5.4-6
		C424.7,35.1,427.1,32.4,430.1,32.4"/>
	<path class="st0" d="M469.2,100.6c10.1,0,15.7-7.3,15.7-15.4c0-9.2-6.4-15.6-15.7-15.6c-9.2,0-15.5,6.9-15.5,15.8
		C453.7,94,460.7,100.6,469.2,100.6 M492.3,104.7c0,15.3-8.6,23.7-24,23.7c-8.6,0-15.4-2.2-21.7-8.1l5.3-5.8
		c4.6,4.8,9.6,7.4,16.4,7.4c13.2,0,16.7-8.2,16.7-17.1v-5.4h-0.2c-3.5,5.4-9.7,7.9-15.5,7.9c-13.8,0-23.4-9.3-23.4-21.8
		c0-13.9,9.4-22.3,23.4-22.3c5.9,0,12.6,2.7,15.5,8.3h0.2v-7.4h7.3V104.7z"/>
	<path class="st0" d="M538.9,81.6c-0.3-7.2-5.2-12-13.3-12s-13.5,4.8-14.4,12H538.9z M545.2,98.9c-5.2,6.4-11.4,8.8-19.6,8.8
		c-13.8,0-22.3-10-22.3-22.3c0-13.2,9.6-22.3,22.6-22.3c12.4,0,20.9,8.2,20.9,22.2v2.3h-35.6c0.6,7.4,6.4,13.6,14.4,13.6
		c6.3,0,10.5-2.2,14-6.4L545.2,98.9z"/>
	<path class="st0" d="M558.2,74.2c0-3.9-0.4-7.3-0.4-10.1h6.9c0,2.3,0.2,4.6,0.2,7h0.2c2-4.2,7.5-8.1,14.7-8.1
		c11.6,0,16.8,7.1,16.8,17.3v26.2h-7.4V81.1c0-7.1-3.2-11.5-10.1-11.5c-9.5,0-13.6,6.6-13.6,16.3v20.7h-7.3V74.2z"/>
	<path class="st0" d="M641.9,74.8c-3.1-3.6-6.7-5.2-11.1-5.2c-9.9,0-14.9,7.1-14.9,15.8s5.9,15.8,14.9,15.8c4.8,0,8.5-1.6,11.2-5.3
		l5.5,5c-4.2,4.7-10.3,6.8-16.7,6.8c-13.7,0-22.8-9.3-22.8-22.3c0-12.9,9.2-22.3,22.8-22.3c6.5,0,12.5,2.1,16.9,6.7L641.9,74.8z"/>
	<path class="st0" d="M688.9,81.6c-0.3-7.2-5.2-12-13.3-12s-13.5,4.8-14.4,12H688.9z M695.2,98.9c-5.2,6.4-11.4,8.8-19.6,8.8
		c-13.8,0-22.3-10-22.3-22.3c0-13.2,9.6-22.3,22.6-22.3c12.4,0,20.9,8.2,20.9,22.2v2.3h-35.6c0.6,7.4,6.4,13.6,14.4,13.6
		c6.3,0,10.5-2.2,14-6.4L695.2,98.9z"/>
	<g>
		<path class="st0" d="M719.3,63.8c0,5.3-4.3,9.6-9.8,9.6s-9.9-4.3-9.9-9.6c0-5.3,4.4-9.5,9.9-9.5C715,54.3,719.3,58.6,719.3,63.8z
			 M702.6,63.9c0,4,2.9,7.1,6.9,7.1s6.9-3.2,6.9-7.2c0-3.9-2.9-7.1-7-7.1C705.6,56.7,702.6,59.9,702.6,63.9z M708.3,68.4h-2.7v-8.8
			c0.6-0.1,2-0.3,3.9-0.3c2,0,2.9,0.3,3.5,0.7c0.6,0.4,0.9,1.1,0.9,1.9c0,0.9-0.8,1.7-2,2V64c1,0.3,1.5,1,1.8,2.3s0.4,1.8,0.6,2.1
			h-3c-0.3-0.3-0.4-1.1-0.6-1.9c-0.2-0.9-0.6-1.3-1.5-1.3h-0.9V68.4z M708.4,63.3h0.8c1,0,1.7-0.4,1.7-1.1s-0.6-1.1-1.6-1.1
			c-0.3,0-0.7,0.1-0.9,0.1V63.3z"/>
	</g>
</g>
</svg>
