<?xml version="1.0" encoding="utf-8"?>
<!-- Generator: Adobe Illustrator 22.0.1, SVG Export Plug-In . SVG Version: 6.00 Build 0)  -->
<svg version="1.1"
	 id="svg2" inkscape:version="0.48.4 r9939" sodipodi:docname="search.svg" xmlns:cc="http://creativecommons.org/ns#" xmlns:dc="http://purl.org/dc/elements/1.1/" xmlns:inkscape="http://www.inkscape.org/namespaces/inkscape" xmlns:rdf="http://www.w3.org/1999/02/22-rdf-syntax-ns#" xmlns:sodipodi="http://sodipodi.sourceforge.net/DTD/sodipodi-0.dtd" xmlns:svg="http://www.w3.org/2000/svg"
	 xmlns="http://www.w3.org/2000/svg" xmlns:xlink="http://www.w3.org/1999/xlink" x="0px" y="0px" viewBox="0 0 1200 1200"
	 style="enable-background:new 0 0 1200 1200;" xml:space="preserve">
<style type="text/css">
	.st0{fill:#3A6EBC;}
</style>
<path id="path20642" inkscape:connector-curvature="0" class="st0" d="M672.6,0c-283.3,0-513,229.7-513,513
	c0,100.7,29,194.6,79.1,273.8c-0.4,0.2-0.7,0.3-1.1,0.5L14.4,1010.4L204,1200l231.2-231.3c-0.1-0.3-0.2-0.7-0.2-1
	c71,37.2,151.9,58.2,237.6,58.2c283.3,0,513-229.7,513-513C1185.6,229.7,955.9,0,672.6,0z M672.6,227.9c157.4,0,285,127.6,285,285.1
	S830.1,798,672.6,798C515.2,798,387.6,670.4,387.6,513S515.2,227.9,672.6,227.9z"/>
</svg>
